<svg width="15" height="27" viewBox="0 0 15 27" fill="none" xmlns="http://www.w3.org/2000/svg">
<path d="M4.05296 14.8697C3.18697 14.8697 2.36843 14.84 1.54989 14.8756C0.677966 14.9171 -0.0516039 14.2884 0.00177918 13.3275C0.0492308 12.509 0.0136419 11.6845 0.0136419 10.86C0.0136419 10.0355 0.553405 9.46613 1.38381 9.45426C2.14304 9.4424 2.89633 9.44833 3.65556 9.44833C3.77419 9.44833 3.89282 9.44833 4.0589 9.44833C4.0589 9.30005 4.0589 9.16955 4.0589 9.04499C4.07076 7.90022 4.03517 6.74952 4.10635 5.60475C4.31395 2.26534 6.75771 -0.00640815 10.1031 -0.000476694C10.9987 -0.000476694 11.9003 0.0232491 12.7959 0.0588379C13.567 0.0884952 14.1009 0.657915 14.1068 1.42307C14.1127 1.9747 14.1068 2.52632 14.1068 3.07795C14.1009 3.87276 13.5433 4.44218 12.7425 4.45998C12.3096 4.47184 11.8766 4.45405 11.4436 4.46591C11.2063 4.47184 10.969 4.49557 10.7377 4.53709C10.0141 4.66758 9.59295 5.01753 9.55142 5.7471C9.48618 6.96305 9.53363 8.18493 9.53363 9.43647C9.63446 9.43647 9.74716 9.43647 9.86579 9.43647C10.797 9.43647 11.7283 9.43054 12.6595 9.43647C13.5789 9.4424 14.1542 10.0889 14.0593 10.9964C13.9704 11.8565 13.8755 12.7166 13.7746 13.5766C13.6797 14.3536 13.134 14.84 12.3451 14.846C11.408 14.8519 10.4649 14.846 9.48025 14.846C9.48025 15.0002 9.48025 15.1247 9.48025 15.2493C9.48025 18.648 9.48025 22.0467 9.48025 25.4455C9.48025 25.6293 9.47432 25.8132 9.4328 25.9912C9.3023 26.5843 8.7744 26.9995 8.16939 26.9995C7.27374 26.9995 6.37216 26.9995 5.47651 26.9995C4.62832 26.9995 4.08262 26.4597 4.06483 25.6056C4.06483 25.5285 4.06483 25.4514 4.06483 25.3802C4.06483 22.0171 4.06483 18.648 4.06483 15.2849C4.05296 15.1781 4.05296 15.0476 4.05296 14.8697Z" fill="white"/>
</svg>
