<svg width="25" height="25" viewBox="0 0 25 25" fill="none" xmlns="http://www.w3.org/2000/svg">
<path d="M6.94347 -0.000488281C3.10875 -0.000488281 -0.000976562 3.10923 -0.000976562 6.94396V18.0551C-0.000976562 21.8898 3.10875 24.9995 6.94347 24.9995H18.0546C21.8893 24.9995 24.999 21.8898 24.999 18.0551V6.94396C24.999 3.10923 21.8893 -0.000488281 18.0546 -0.000488281H6.94347ZM20.8324 2.77729C21.599 2.77729 22.2212 3.39951 22.2212 4.16618C22.2212 4.93284 21.599 5.55507 20.8324 5.55507C20.0657 5.55507 19.4435 4.93284 19.4435 4.16618C19.4435 3.39951 20.0657 2.77729 20.8324 2.77729ZM12.499 5.55507C16.3337 5.55507 19.4435 8.66479 19.4435 12.4995C19.4435 16.3342 16.3337 19.444 12.499 19.444C8.6643 19.444 5.55458 16.3342 5.55458 12.4995C5.55458 8.66479 8.6643 5.55507 12.499 5.55507ZM12.499 8.33284C11.394 8.33284 10.3341 8.77183 9.55274 9.55323C8.77134 10.3346 8.33236 11.3944 8.33236 12.4995C8.33236 13.6046 8.77134 14.6644 9.55274 15.4458C10.3341 16.2272 11.394 16.6662 12.499 16.6662C13.6041 16.6662 14.6639 16.2272 15.4453 15.4458C16.2267 14.6644 16.6657 13.6046 16.6657 12.4995C16.6657 11.3944 16.2267 10.3346 15.4453 9.55323C14.6639 8.77183 13.6041 8.33284 12.499 8.33284Z" fill="white"/>
</svg>
