<svg width="30" height="30" viewBox="0 0 30 30" fill="none" xmlns="http://www.w3.org/2000/svg">
<path d="M22.4672 19.4199C21.9377 19.1095 21.2868 19.116 20.7598 19.4291L18.0912 21.019C17.4938 21.3751 16.7477 21.3334 16.1999 20.9056C15.2529 20.166 13.7282 18.9217 12.4016 17.5952C11.0751 16.2687 9.8308 14.7439 9.09124 13.7969C8.66342 13.2491 8.62168 12.503 8.97776 11.9056L10.5677 9.23697C10.8821 8.71002 10.8847 8.05394 10.5743 7.52437L6.65865 0.835735C6.27909 0.188784 5.52518 -0.129474 4.79606 0.0492204C4.0878 0.221393 3.16825 0.641389 2.20434 1.6066C-0.813896 4.62483 -2.41693 9.71566 8.93342 21.066C20.2838 32.4163 25.3733 30.8146 28.3928 27.7951C29.3593 26.8286 29.778 25.9077 29.9515 25.1981C30.1276 24.4703 29.8146 23.7216 29.1689 23.3434C27.5567 22.4003 24.0794 20.3643 22.4672 19.4199Z" fill="white"/>
</svg>
