<svg>

  <svg viewBox="0 0 30 18" xmlns="http://www.w3.org/2000/svg" id="icon_vk">
    <path d="M9.89801 1.155C10.1092 0.626953 10.4571 0.359825 10.8796 0.235579C11.2958 0.111333 11.7368 -0.000488281 12.1655 -0.000488281C13.5633 0.00572401 14.9735 0.018149 16.365 0.12997C17.1664 0.198305 17.477 0.571043 17.5143 1.37864C17.564 2.39746 17.5019 3.42248 17.4956 4.44751C17.4894 5.23647 17.4584 6.03164 17.4956 6.82061C17.5143 7.18713 17.6199 7.57229 17.7814 7.90776C17.9864 8.3364 18.3094 8.41095 18.6822 8.11276C19.0798 7.79593 19.4525 7.42941 19.7569 7.02561C21.0242 5.36072 21.9871 3.52809 22.7637 1.58986C23.0681 0.825747 23.2234 0.72635 24.0372 0.72635C25.5903 0.713925 27.1433 0.701501 28.6902 0.689076C29.9264 0.676652 30.3116 1.16121 29.7401 2.25457C29.0816 3.52188 28.2677 4.70843 27.4726 5.88876C26.8824 6.75848 26.1928 7.55987 25.5778 8.41716C24.8261 9.46704 24.8758 9.90811 25.7828 10.8213C26.7333 11.778 27.7149 12.7036 28.6281 13.6914C29.0816 14.1822 29.4543 14.7537 29.7835 15.3377C30.1998 16.0645 29.9513 16.605 29.1437 16.8472C28.92 16.9156 28.684 16.9528 28.4541 16.9591C27.106 16.9901 25.758 17.0212 24.4161 17.0274C23.6023 17.0336 22.8879 16.7044 22.3102 16.1639C21.6827 15.5737 21.1236 14.9152 20.521 14.294C20.1731 13.9399 19.8315 13.5672 19.4401 13.2752C18.8561 12.8403 18.2722 12.9521 18.005 13.6293C17.7503 14.2691 17.6137 14.9711 17.5391 15.6607C17.4397 16.6298 17.1478 16.9466 16.1724 16.9715C14.5386 17.0088 12.9296 16.9466 11.3765 16.3503C9.41345 15.5924 7.81689 14.3499 6.48746 12.7409C4.55544 10.4175 3.05828 7.81457 1.69158 5.14329C1.15111 4.09341 0.654124 3.01247 0.163353 1.93775C-0.203172 1.13636 0.0391075 0.732562 0.933677 0.713925C2.32523 0.682863 3.71678 0.670439 5.10834 0.682863C5.72335 0.689076 6.13958 0.999691 6.37564 1.58986C7.13354 3.46597 8.07781 5.2489 9.25814 6.89515C9.56876 7.33001 9.9415 7.74002 10.3453 8.08791C10.8299 8.50414 11.2958 8.34883 11.507 7.74624C11.6126 7.44805 11.6996 7.12501 11.712 6.80818C11.7493 5.60921 11.7865 4.41024 11.7493 3.21126C11.6996 2.08684 11.2337 1.25439 9.89801 1.155Z"/>
  </svg>

  <svg viewBox="0 0 15 27" xmlns="http://www.w3.org/2000/svg" id="icon_facebook">
    <path d="M4.05296 14.8697C3.18697 14.8697 2.36843 14.84 1.54989 14.8756C0.677966 14.9171 -0.0516039 14.2884 0.00177918 13.3275C0.0492308 12.509 0.0136419 11.6845 0.0136419 10.86C0.0136419 10.0355 0.553405 9.46613 1.38381 9.45426C2.14304 9.4424 2.89633 9.44833 3.65556 9.44833C3.77419 9.44833 3.89282 9.44833 4.0589 9.44833C4.0589 9.30005 4.0589 9.16955 4.0589 9.04499C4.07076 7.90022 4.03517 6.74952 4.10635 5.60475C4.31395 2.26534 6.75771 -0.00640815 10.1031 -0.000476694C10.9987 -0.000476694 11.9003 0.0232491 12.7959 0.0588379C13.567 0.0884952 14.1009 0.657915 14.1068 1.42307C14.1127 1.9747 14.1068 2.52632 14.1068 3.07795C14.1009 3.87276 13.5433 4.44218 12.7425 4.45998C12.3096 4.47184 11.8766 4.45405 11.4436 4.46591C11.2063 4.47184 10.969 4.49557 10.7377 4.53709C10.0141 4.66758 9.59295 5.01753 9.55142 5.7471C9.48618 6.96305 9.53363 8.18493 9.53363 9.43647C9.63446 9.43647 9.74716 9.43647 9.86579 9.43647C10.797 9.43647 11.7283 9.43054 12.6595 9.43647C13.5789 9.4424 14.1542 10.0889 14.0593 10.9964C13.9704 11.8565 13.8755 12.7166 13.7746 13.5766C13.6797 14.3536 13.134 14.84 12.3451 14.846C11.408 14.8519 10.4649 14.846 9.48025 14.846C9.48025 15.0002 9.48025 15.1247 9.48025 15.2493C9.48025 18.648 9.48025 22.0467 9.48025 25.4455C9.48025 25.6293 9.47432 25.8132 9.4328 25.9912C9.3023 26.5843 8.7744 26.9995 8.16939 26.9995C7.27374 26.9995 6.37216 26.9995 5.47651 26.9995C4.62832 26.9995 4.08262 26.4597 4.06483 25.6056C4.06483 25.5285 4.06483 25.4514 4.06483 25.3802C4.06483 22.0171 4.06483 18.648 4.06483 15.2849C4.05296 15.1781 4.05296 15.0476 4.05296 14.8697Z"/>
  </svg>

  <svg viewBox="0 0 25 25" xmlns="http://www.w3.org/2000/svg" id="icon_instagram">
    <path d="M6.94347 -0.000488281C3.10875 -0.000488281 -0.000976562 3.10923 -0.000976562 6.94396V18.0551C-0.000976562 21.8898 3.10875 24.9995 6.94347 24.9995H18.0546C21.8893 24.9995 24.999 21.8898 24.999 18.0551V6.94396C24.999 3.10923 21.8893 -0.000488281 18.0546 -0.000488281H6.94347ZM20.8324 2.77729C21.599 2.77729 22.2212 3.39951 22.2212 4.16618C22.2212 4.93284 21.599 5.55507 20.8324 5.55507C20.0657 5.55507 19.4435 4.93284 19.4435 4.16618C19.4435 3.39951 20.0657 2.77729 20.8324 2.77729ZM12.499 5.55507C16.3337 5.55507 19.4435 8.66479 19.4435 12.4995C19.4435 16.3342 16.3337 19.444 12.499 19.444C8.6643 19.444 5.55458 16.3342 5.55458 12.4995C5.55458 8.66479 8.6643 5.55507 12.499 5.55507ZM12.499 8.33284C11.394 8.33284 10.3341 8.77183 9.55274 9.55323C8.77134 10.3346 8.33236 11.3944 8.33236 12.4995C8.33236 13.6046 8.77134 14.6644 9.55274 15.4458C10.3341 16.2272 11.394 16.6662 12.499 16.6662C13.6041 16.6662 14.6639 16.2272 15.4453 15.4458C16.2267 14.6644 16.6657 13.6046 16.6657 12.4995C16.6657 11.3944 16.2267 10.3346 15.4453 9.55323C14.6639 8.77183 13.6041 8.33284 12.499 8.33284Z"/>
  </svg>

  <svg viewBox="0 0 21 16" xmlns="http://www.w3.org/2000/svg" id="icon_arrow_left">
    <path d="M0.292892 8.70711C-0.0976315 8.31658 -0.0976315 7.68342 0.292892 7.29289L6.65685 0.928932C7.04738 0.538408 7.68054 0.538408 8.07107 0.928932C8.46159 1.31946 8.46159 1.95262 8.07107 2.34315L2.41421 8L8.07107 13.6569C8.46159 14.0474 8.46159 14.6805 8.07107 15.0711C7.68054 15.4616 7.04738 15.4616 6.65685 15.0711L0.292892 8.70711ZM21 9H1V7H21V9Z"/>
  </svg>

  <svg viewBox="0 0 21 16"  xmlns="http://www.w3.org/2000/svg" id="icon_arrow_right">
    <path d="M20.7071 8.70711C21.0976 8.31658 21.0976 7.68342 20.7071 7.29289L14.3431 0.928932C13.9526 0.538408 13.3195 0.538408 12.9289 0.928932C12.5384 1.31946 12.5384 1.95262 12.9289 2.34315L18.5858 8L12.9289 13.6569C12.5384 14.0474 12.5384 14.6805 12.9289 15.0711C13.3195 15.4616 13.9526 15.4616 14.3431 15.0711L20.7071 8.70711ZM0 9H20V7H0V9Z" />
  </svg>

  <svg viewBox="0 0 16 21" xmlns="http://www.w3.org/2000/svg" id="icon_arrow_down">
    <path d="M7.29289 20.7071C7.68342 21.0976 8.31658 21.0976 8.70711 20.7071L15.0711 14.3431C15.4616 13.9526 15.4616 13.3195 15.0711 12.9289C14.6805 12.5384 14.0474 12.5384 13.6569 12.9289L8 18.5858L2.34315 12.9289C1.95262 12.5384 1.31946 12.5384 0.928932 12.9289C0.538407 13.3195 0.538407 13.9526 0.928932 14.3431L7.29289 20.7071ZM7 -4.37114e-08L7 20L9 20L9 4.37114e-08L7 -4.37114e-08Z"/>
  </svg>

  <svg viewBox="0 0 30 24" xmlns="http://www.w3.org/2000/svg" id="icon_mail">
    <path d="M3 0C1.464 0 0.210656 1.15894 0.0351562 2.64844L15 12L29.9648 2.64844C29.7893 1.15894 28.536 0 27 0H3ZM0 5.62793V21C0 22.6575 1.3425 24 3 24H27C28.6575 24 30 22.6575 30 21V5.62793L15.7939 14.5049C15.3079 14.8079 14.6921 14.8079 14.2061 14.5049L0 5.62793Z"/>
  </svg>

  <svg viewBox="0 0 30 30" xmlns="http://www.w3.org/2000/svg" id="icon_phone">
    <path d="M22.4672 19.4199C21.9377 19.1095 21.2868 19.116 20.7598 19.4291L18.0912 21.019C17.4938 21.3751 16.7477 21.3334 16.1999 20.9056C15.2529 20.166 13.7282 18.9217 12.4016 17.5952C11.0751 16.2687 9.8308 14.7439 9.09124 13.7969C8.66342 13.2491 8.62168 12.503 8.97776 11.9056L10.5677 9.23697C10.8821 8.71002 10.8847 8.05394 10.5743 7.52437L6.65865 0.835735C6.27909 0.188784 5.52518 -0.129474 4.79606 0.0492204C4.0878 0.221393 3.16825 0.641389 2.20434 1.6066C-0.813896 4.62483 -2.41693 9.71566 8.93342 21.066C20.2838 32.4163 25.3733 30.8146 28.3928 27.7951C29.3593 26.8286 29.778 25.9077 29.9515 25.1981C30.1276 24.4703 29.8146 23.7216 29.1689 23.3434C27.5567 22.4003 24.0794 20.3643 22.4672 19.4199Z" />
  </svg>


</svg>