<svg width="30" height="18" viewBox="0 0 30 18" fill="none" xmlns="http://www.w3.org/2000/svg">
<path d="M9.89801 1.155C10.1092 0.626953 10.4571 0.359825 10.8796 0.235579C11.2958 0.111333 11.7368 -0.000488281 12.1655 -0.000488281C13.5633 0.00572401 14.9735 0.018149 16.365 0.12997C17.1664 0.198305 17.477 0.571043 17.5143 1.37864C17.564 2.39746 17.5019 3.42248 17.4956 4.44751C17.4894 5.23647 17.4584 6.03164 17.4956 6.82061C17.5143 7.18713 17.6199 7.57229 17.7814 7.90776C17.9864 8.3364 18.3094 8.41095 18.6822 8.11276C19.0798 7.79593 19.4525 7.42941 19.7569 7.02561C21.0242 5.36072 21.9871 3.52809 22.7637 1.58986C23.0681 0.825747 23.2234 0.72635 24.0372 0.72635C25.5903 0.713925 27.1433 0.701501 28.6902 0.689076C29.9264 0.676652 30.3116 1.16121 29.7401 2.25457C29.0816 3.52188 28.2677 4.70843 27.4726 5.88876C26.8824 6.75848 26.1928 7.55987 25.5778 8.41716C24.8261 9.46704 24.8758 9.90811 25.7828 10.8213C26.7333 11.778 27.7149 12.7036 28.6281 13.6914C29.0816 14.1822 29.4543 14.7537 29.7835 15.3377C30.1998 16.0645 29.9513 16.605 29.1437 16.8472C28.92 16.9156 28.684 16.9528 28.4541 16.9591C27.106 16.9901 25.758 17.0212 24.4161 17.0274C23.6023 17.0336 22.8879 16.7044 22.3102 16.1639C21.6827 15.5737 21.1236 14.9152 20.521 14.294C20.1731 13.9399 19.8315 13.5672 19.4401 13.2752C18.8561 12.8403 18.2722 12.9521 18.005 13.6293C17.7503 14.2691 17.6137 14.9711 17.5391 15.6607C17.4397 16.6298 17.1478 16.9466 16.1724 16.9715C14.5386 17.0088 12.9296 16.9466 11.3765 16.3503C9.41345 15.5924 7.81689 14.3499 6.48746 12.7409C4.55544 10.4175 3.05828 7.81457 1.69158 5.14329C1.15111 4.09341 0.654124 3.01247 0.163353 1.93775C-0.203172 1.13636 0.0391075 0.732562 0.933677 0.713925C2.32523 0.682863 3.71678 0.670439 5.10834 0.682863C5.72335 0.689076 6.13958 0.999691 6.37564 1.58986C7.13354 3.46597 8.07781 5.2489 9.25814 6.89515C9.56876 7.33001 9.9415 7.74002 10.3453 8.08791C10.8299 8.50414 11.2958 8.34883 11.507 7.74624C11.6126 7.44805 11.6996 7.12501 11.712 6.80818C11.7493 5.60921 11.7865 4.41024 11.7493 3.21126C11.6996 2.08684 11.2337 1.25439 9.89801 1.155Z" fill="white"/>
</svg>
