<?xml version="1.0" encoding="utf-8"?>
<!-- Generator: Adobe Illustrator 23.0.1, SVG Export Plug-In . SVG Version: 6.00 Build 0)  -->
<svg version="1.1" id="Layer_1" xmlns="http://www.w3.org/2000/svg" xmlns:xlink="http://www.w3.org/1999/xlink" x="0px" y="0px"
	 viewBox="0 0 1039 189" style="enable-background:new 0 0 1039 189;" xml:space="preserve">
<style type="text/css">
	.st0{fill:#F14942;}
	.st1{fill:#254E76;}
</style>
<path class="st0" d="M173.5,0c-28.4,0-50.8,1.3-72.6,11.4C78.2,21.8,83.7,32.8,70.2,42.4c-12.5,8.9-30.6,2.4-53.1,18.1
	C1.5,71.4,0,81.8,0,93.5C0,146.3,77.7,189,173.5,189c95.8,0,173.5-42.7,173.5-95.5C347,40.8,269.3,0,173.5,0z M137.8,31.8
	c-0.7,18.1-40.7,21.2-40.5,4.8C97.6,17.9,138.3,16.1,137.8,31.8z M268.9,141.1l-12,11l-50.2-36.3v52.8l-21,4v-52.8l-31.1,23
	c-10.7,10.7-31.1,10.9-39.4,9.6c-15.2-2.5-25.6-10.5-31.2-24.1l3-1.1c1.3,3,7.8,13.6,20.5,16.2c5.2,1.1,13.2,1.2,20.1-2.3
	c16.3-8.4,17.7-23.1,8.3-32.6c-4.5-4.6-12-7.8-23.4-9.6l1-3.5c8.1,1.3,14,0.7,18.4-0.1c4.4-0.8,9-3,12.1-6c6-5.9,7.9-24.2-10.1-26.9
	c-7.6-1.1-14.7,1.9-17.8,3.6l-2.2-2c1.7-2.4,4-4.1,8.7-6.3c5.7-2.7,14-3.5,20.6-2.3c24.6,4.5,25.8,30.1,13.9,39
	c-4.7,3.5-11,5.3-18.1,6.1c6.6,2.2,25.1,12.5,22.4,29.6l24.5-20.7V35.7l21-5.3v61.1l61.6-51.9l11.4,10.5L207.1,104L268.9,141.1z"/>
<path class="st1" d="M395.1,46.6h9.5l9.5,10.2l10.6,11.3L436,80.3c0.8,0.9,2,2.2,3.3,3.7c1.9,2.1,3,3.3,3.4,3.8
	c1.4,1.6,2.5,2.8,3.4,3.8v-45c1.2,0.2,2.5,0.3,3.8,0.3c1.2,0,2.5-0.1,3.8-0.3v65.9l-8.2-0.1l-11.9-13.2l-10.5-11.6
	c-1.4-1.6-3-3.4-4.9-5.4c-1.3-1.5-3-3.3-5.1-5.4l-10.5-10.9v46.5l-2-0.1l-1.9-0.1l-1.9,0.1l-1.9,0.1V46.6z M505.8,46.6l-0.5,4.1
	c0,0.6,0.2,2,0.5,4.1c-6.6-0.9-14-1.3-22.2-1.3v20.6h10c3.8,0,7.8-0.3,11.8-0.9c-0.3,2-0.5,3.4-0.5,4.1c0,0.8,0.2,2.2,0.5,4.2
	c-2.1-0.3-4.1-0.5-6.1-0.7c-2-0.2-3.9-0.2-5.7-0.2h-10v24.4c4.5,0,8.4-0.1,11.8-0.3c3.4-0.2,6.9-0.6,10.4-1l-0.5,4.1
	c0,0.6,0.2,2,0.5,4.1h-36.6V46.6H505.8z M541.3,112c-0.6,0-2,0.2-4.1,0.5c-2.3-6.3-4.8-13-7.5-20.1c-2.7-7.1-5.6-14.5-8.6-22.2
	c-3.2-8.2-6.5-16-9.6-23.6c1.6,0,3,0.1,4.4,0.2c1.4,0.1,2.7,0.2,4.1,0.3c1.3-0.1,2.8-0.2,4.4-0.3c1.6-0.1,3-0.1,4.1-0.1
	c0.9,3.3,2,6.8,3.3,10.5c0.9,2.8,1.5,4.5,1.7,5c0.8,2.2,1.4,3.9,1.8,5l5.2,14l4.9,13.1c7.6-18.3,13.6-34.2,18-47.5
	c1.4,0.2,2.9,0.3,4.4,0.3c1.5,0,2.9-0.1,4.4-0.3c-3.8,9-7.1,16.8-9.9,23.2c-2.5,5.9-4.7,11.2-6.6,15.8c-3.3,8-6.7,16.9-10.3,26.9
	L541.3,112z M583.7,92.4l-2.4,6.7l-2.6,7.5l-1.8,5.7l-2.2-0.1l-2.2-0.1l-2.2,0.1l-2.3,0.1l27.5-66.5c1.2,0.2,2.4,0.3,3.6,0.3
	c1.2,0,2.4-0.1,3.7-0.3l26.8,66.7l-8.2-0.5c-1.2,0.1-2.6,0.2-4.2,0.3c-1.6,0.1-3,0.1-4.1,0.1c-2.8-9.2-5.1-15.8-6.8-20.1H583.7z
	 M603.9,86.5l-8.5-22.4l-9,22.4H603.9z M696.4,112.5l-7.2-0.5c-1.1,0.1-2.3,0.2-3.7,0.3c-1.4,0.1-2.5,0.1-3.5,0.1V46.6h23.6
	c6.7,0,11.8,1.4,15.3,4.1c3.5,2.7,5.2,6.8,5.2,12.1c0,4.2-0.7,7.6-2.2,10.4c-1.4,2.7-3.4,4.8-6,6.4c-2.6,1.5-5.7,2.5-9.3,3.1
	c-1.8,0.3-3.7,0.5-5.7,0.7c-2,0.2-4.2,0.2-6.6,0.2V112.5z M696.4,78.3c1.4,0,2.6,0,3.6-0.1c1-0.1,1.9-0.3,2.7-0.5
	c2.9-0.8,5.1-2.4,6.5-4.7s2.1-5.2,2.1-8.3c0-3.8-0.8-6.8-2.5-9.2c-1.7-2.4-3.8-3.6-6.4-3.6h-6V78.3z M740.3,92.4l-2.4,6.7l-2.6,7.5
	l-1.8,5.7l-2.2-0.1L729,112l-2.2,0.1l-2.3,0.1l27.5-66.5c1.2,0.2,2.4,0.3,3.6,0.3c1.2,0,2.4-0.1,3.7-0.3l26.8,66.7l-8.2-0.5
	c-1.2,0.1-2.6,0.2-4.2,0.3c-1.6,0.1-3,0.1-4.1,0.1c-2.8-9.2-5.1-15.8-6.8-20.1H740.3z M760.5,86.5l-8.5-22.4l-9,22.4H760.5z
	 M809.3,105.1c1,0,2.8,0,5.3-0.1c2.5-0.1,4.3-0.2,5.5-0.2c1.4,0,3.2-0.1,5.2-0.3c2-0.2,4-0.4,6-0.7l-0.5,4.1c0,0.6,0.2,2,0.5,4.1
	h-36.4V46.6c1.3,0,2.6,0.1,3.8,0.2c1.2,0.1,2.3,0.2,3.5,0.3c1.1-0.1,2.3-0.2,3.7-0.3s2.5-0.1,3.5-0.1V105.1z M879.3,46.6l-0.5,4.1
	c0,0.6,0.2,2,0.5,4.1c-6.6-0.9-14-1.3-22.2-1.3v20.6h10c3.8,0,7.8-0.3,11.8-0.9c-0.3,2-0.5,3.4-0.5,4.1c0,0.8,0.2,2.2,0.5,4.2
	c-2.1-0.3-4.1-0.5-6.1-0.7c-2-0.2-3.9-0.2-5.7-0.2h-10v24.4c4.5,0,8.4-0.1,11.8-0.3c3.4-0.2,6.9-0.6,10.4-1l-0.5,4.1
	c0,0.6,0.2,2,0.5,4.1h-36.6V46.6H879.3z M917.4,112.5l-7.2-0.5c-1.1,0.1-2.3,0.2-3.7,0.3c-1.4,0.1-2.6,0.1-3.6,0.1V53.4
	c-5.1,0-11.1,0.5-17.9,1.4c0.3-2.2,0.5-3.5,0.5-4.1c0-0.5-0.2-1.9-0.5-4h49.5c-0.3,2.2-0.5,3.5-0.5,4c0,0.6,0.2,1.9,0.5,4.1
	c-7.7-0.9-13.4-1.4-17.2-1.4V112.5z M970.8,112.5l-7.2-0.5c-1.1,0.1-2.3,0.2-3.7,0.3c-1.4,0.1-2.6,0.1-3.6,0.1V53.4
	c-5.1,0-11.1,0.5-17.9,1.4c0.3-2.2,0.5-3.5,0.5-4.1c0-0.5-0.2-1.9-0.5-4H988c-0.3,2.2-0.5,3.5-0.5,4c0,0.6,0.2,1.9,0.5,4.1
	c-7.7-0.9-13.4-1.4-17.2-1.4V112.5z M1034.2,46.6l-0.5,4.1c0,0.6,0.2,2,0.5,4.1c-6.6-0.9-14-1.3-22.2-1.3v20.6h10
	c3.8,0,7.8-0.3,11.8-0.9c-0.3,2-0.5,3.4-0.5,4.1c0,0.8,0.2,2.2,0.5,4.2c-2.1-0.3-4.1-0.5-6.1-0.7c-2-0.2-3.9-0.2-5.7-0.2h-10v24.4
	c4.5,0,8.4-0.1,11.8-0.3c3.4-0.2,6.9-0.6,10.4-1l-0.5,4.1c0,0.6,0.2,2,0.5,4.1h-36.6V46.6H1034.2z"/>
<path class="st1" d="M405.1,137.2c-0.7-0.8-1.7-1.5-2.9-2c-1.2-0.5-2.6-0.8-4.1-0.8c-2.3,0-3.9,0.4-4.9,1.3c-1,0.8-1.5,2-1.5,3.5
	c0,0.8,0.1,1.4,0.4,1.9c0.3,0.5,0.7,0.9,1.3,1.3c0.6,0.4,1.3,0.7,2.2,0.9c0.9,0.3,2,0.5,3.2,0.8c1.4,0.3,2.6,0.6,3.7,1
	c1.1,0.4,2,0.8,2.8,1.4c0.8,0.5,1.4,1.2,1.8,1.9c0.4,0.8,0.6,1.7,0.6,2.9c0,1.2-0.2,2.2-0.7,3.1s-1.1,1.6-1.9,2.2
	c-0.8,0.6-1.8,1-2.9,1.3c-1.1,0.3-2.4,0.4-3.7,0.4c-4,0-7.4-1.2-10.3-3.7l1.3-2.1c0.5,0.5,1,0.9,1.6,1.4c0.6,0.4,1.4,0.8,2.1,1.2
	c0.8,0.3,1.6,0.6,2.5,0.8c0.9,0.2,1.8,0.3,2.8,0.3c2,0,3.6-0.4,4.8-1.1c1.2-0.7,1.7-1.9,1.7-3.3c0-0.8-0.2-1.5-0.5-2
	c-0.3-0.6-0.8-1-1.4-1.4c-0.6-0.4-1.5-0.8-2.4-1c-1-0.3-2.1-0.6-3.3-0.9c-1.3-0.3-2.5-0.6-3.5-1c-1-0.3-1.9-0.8-2.6-1.3
	c-0.7-0.5-1.2-1.1-1.6-1.8c-0.3-0.7-0.5-1.6-0.5-2.6c0-1.2,0.2-2.2,0.6-3.1c0.5-0.9,1.1-1.7,1.9-2.3c0.8-0.6,1.8-1.1,2.9-1.4
	c1.1-0.3,2.3-0.5,3.7-0.5c1.7,0,3.2,0.3,4.5,0.8c1.3,0.5,2.6,1.2,3.6,2.2L405.1,137.2z M421.4,132.4h2.1l10.6,25.6h-2.7l-3.3-8
	h-11.5l-3.3,8h-2.7L421.4,132.4z M427.6,148l-5.1-12.6l-5.2,12.6H427.6z M439.6,158v-25.6h2.5V158H439.6z M452.8,137.1V158h-2.5
	v-25.6h1.9l16.9,21.3v-21.2h2.5V158h-2.2L452.8,137.1z M498.1,134.7H489V158h-2.5v-23.3h-9.1v-2.2h20.7V134.7z M513.6,158v-25.6
	h10.6c1.1,0,2.1,0.2,3,0.7c0.9,0.5,1.7,1.1,2.4,1.8c0.7,0.7,1.2,1.6,1.6,2.6c0.4,1,0.6,1.9,0.6,2.9c0,1.1-0.2,2.1-0.5,3.1
	c-0.4,1-0.9,1.8-1.5,2.6s-1.4,1.3-2.3,1.8c-0.9,0.5-1.9,0.7-3,0.7h-8.3v9.4H513.6z M516.2,146.3h8.2c0.7,0,1.4-0.2,2-0.5
	c0.6-0.3,1.2-0.8,1.6-1.3c0.4-0.6,0.8-1.2,1-1.9c0.2-0.7,0.4-1.5,0.4-2.2c0-0.8-0.1-1.5-0.4-2.2c-0.3-0.7-0.6-1.3-1.1-1.9
	c-0.5-0.5-1-0.9-1.7-1.2c-0.6-0.3-1.3-0.5-2-0.5h-8V146.3z M555,155.8v2.2h-17.2v-25.6h16.8v2.2h-14.3v9.2h12.5v2.1h-12.5v9.8H555z
	 M579.7,134.7h-9.1V158h-2.5v-23.3H559v-2.2h20.7V134.7z M602.5,155.8v2.2h-17.2v-25.6h16.8v2.2h-14.3v9.2h12.5v2.1h-12.5v9.8H602.5
	z M609.1,158v-25.6h10.8c1.1,0,2.1,0.2,3,0.7c0.9,0.5,1.7,1.1,2.4,1.8c0.7,0.7,1.2,1.6,1.5,2.6c0.4,1,0.6,1.9,0.6,2.9
	c0,0.9-0.1,1.8-0.4,2.7c-0.3,0.8-0.6,1.6-1.2,2.3c-0.5,0.7-1.1,1.2-1.8,1.7c-0.7,0.5-1.5,0.8-2.3,0.9l6.3,9.9h-2.8l-6-9.4h-7.6v9.4
	H609.1z M611.6,146.3h8.4c0.7,0,1.4-0.2,2-0.5c0.6-0.3,1.2-0.8,1.6-1.3s0.8-1.2,1-1.9s0.4-1.4,0.4-2.2c0-0.8-0.1-1.5-0.4-2.2
	c-0.3-0.7-0.6-1.3-1.1-1.9c-0.5-0.5-1-0.9-1.7-1.3c-0.6-0.3-1.3-0.5-2-0.5h-8.1V146.3z M649.3,137.2c-0.7-0.8-1.7-1.5-2.9-2
	s-2.6-0.8-4.1-0.8c-2.3,0-3.9,0.4-4.9,1.3c-1,0.8-1.5,2-1.5,3.5c0,0.8,0.1,1.4,0.4,1.9c0.3,0.5,0.7,0.9,1.3,1.3
	c0.6,0.4,1.3,0.7,2.2,0.9c0.9,0.3,2,0.5,3.2,0.8c1.4,0.3,2.6,0.6,3.7,1c1.1,0.4,2,0.8,2.8,1.4c0.8,0.5,1.4,1.2,1.8,1.9
	c0.4,0.8,0.6,1.7,0.6,2.9c0,1.2-0.2,2.2-0.7,3.1s-1.1,1.6-1.9,2.2c-0.8,0.6-1.8,1-2.9,1.3c-1.1,0.3-2.4,0.4-3.7,0.4
	c-4,0-7.4-1.2-10.3-3.7l1.3-2.1c0.5,0.5,1,0.9,1.6,1.4c0.6,0.4,1.4,0.8,2.1,1.2c0.8,0.3,1.6,0.6,2.5,0.8c0.9,0.2,1.8,0.3,2.8,0.3
	c2,0,3.6-0.4,4.8-1.1c1.2-0.7,1.7-1.9,1.7-3.3c0-0.8-0.2-1.5-0.5-2c-0.3-0.6-0.8-1-1.4-1.4c-0.6-0.4-1.5-0.8-2.4-1
	c-1-0.3-2.1-0.6-3.3-0.9c-1.3-0.3-2.5-0.6-3.5-1c-1-0.3-1.9-0.8-2.6-1.3s-1.2-1.1-1.6-1.8c-0.3-0.7-0.5-1.6-0.5-2.6
	c0-1.2,0.2-2.2,0.6-3.1c0.5-0.9,1.1-1.7,1.9-2.3c0.8-0.6,1.8-1.1,2.9-1.4c1.1-0.3,2.3-0.5,3.7-0.5c1.7,0,3.2,0.3,4.5,0.8
	c1.3,0.5,2.6,1.2,3.6,2.2L649.3,137.2z M677.3,151.4c0,1-0.2,1.8-0.6,2.7c-0.4,0.8-0.9,1.5-1.5,2.1c-0.6,0.6-1.4,1-2.3,1.4
	c-0.9,0.3-1.8,0.5-2.8,0.5h-12.1v-25.6h12.3c0.9,0,1.7,0.2,2.4,0.6c0.7,0.4,1.3,0.9,1.8,1.5c0.5,0.6,0.9,1.3,1.2,2.1
	c0.3,0.8,0.4,1.5,0.4,2.3c0,1.3-0.3,2.5-1,3.6c-0.6,1.1-1.5,1.8-2.7,2.4c1.5,0.4,2.6,1.2,3.5,2.4
	C676.9,148.5,677.3,149.9,677.3,151.4z M674.8,151c0-0.6-0.1-1.2-0.3-1.8c-0.2-0.6-0.5-1.1-0.9-1.5c-0.4-0.5-0.9-0.8-1.4-1.1
	c-0.5-0.3-1.1-0.4-1.7-0.4h-9.8v9.7h9.5c0.6,0,1.2-0.1,1.8-0.4c0.6-0.3,1.1-0.6,1.5-1c0.4-0.5,0.8-1,1-1.5
	C674.7,152.2,674.8,151.6,674.8,151z M660.6,134.6v9.4h8.8c0.6,0,1.2-0.1,1.7-0.4c0.6-0.3,1-0.6,1.4-1c0.4-0.4,0.7-0.9,0.9-1.5
	c0.2-0.6,0.3-1.2,0.3-1.8c0-0.6-0.1-1.3-0.3-1.8c-0.2-0.6-0.5-1.1-0.9-1.5c-0.4-0.4-0.8-0.8-1.3-1c-0.5-0.3-1.1-0.4-1.7-0.4H660.6z
	 M694.2,155.9c1.6,0,2.9-0.3,4-0.9c1.1-0.6,1.9-1.4,2.6-2.4c0.6-1,1.1-2.1,1.3-3.4c0.3-1.3,0.4-2.6,0.4-3.9v-12.9h2.5v12.9
	c0,1.7-0.2,3.4-0.6,4.9c-0.4,1.5-1,2.9-1.9,4.1c-0.8,1.2-1.9,2.1-3.3,2.8s-3,1-5,1c-2,0-3.7-0.4-5.1-1.1c-1.4-0.7-2.5-1.7-3.3-2.9
	c-0.8-1.2-1.4-2.6-1.8-4.1c-0.4-1.5-0.5-3.1-0.5-4.8v-12.9h2.5v12.9c0,1.3,0.1,2.7,0.4,3.9s0.7,2.4,1.3,3.4c0.6,1,1.5,1.8,2.6,2.4
	C691.3,155.6,692.6,155.9,694.2,155.9z M712.8,158v-25.6h10.8c1.1,0,2.1,0.2,3,0.7c0.9,0.5,1.7,1.1,2.4,1.8c0.7,0.7,1.2,1.6,1.5,2.6
	c0.4,1,0.6,1.9,0.6,2.9c0,0.9-0.1,1.8-0.4,2.7c-0.3,0.8-0.6,1.6-1.2,2.3c-0.5,0.7-1.1,1.2-1.8,1.7c-0.7,0.5-1.5,0.8-2.3,0.9l6.3,9.9
	h-2.8l-6-9.4h-7.6v9.4H712.8z M715.3,146.3h8.4c0.7,0,1.4-0.2,2-0.5c0.6-0.3,1.2-0.8,1.6-1.3c0.4-0.6,0.8-1.2,1-1.9
	c0.2-0.7,0.4-1.4,0.4-2.2c0-0.8-0.1-1.5-0.4-2.2c-0.3-0.7-0.6-1.3-1.1-1.9c-0.5-0.5-1-0.9-1.7-1.3c-0.6-0.3-1.3-0.5-2-0.5h-8.1
	V146.3z M756.6,154.3c-2.4,2.6-5.1,3.9-8.2,3.9c-1.7,0-3.3-0.4-4.8-1.1c-1.4-0.7-2.7-1.7-3.8-3c-1.1-1.2-1.9-2.6-2.5-4.1
	c-0.6-1.6-0.9-3.2-0.9-4.8c0-1.7,0.3-3.3,0.9-4.9c0.6-1.6,1.4-2.9,2.5-4.1c1.1-1.2,2.3-2.1,3.7-2.8c1.4-0.7,3-1.1,4.7-1.1
	c1.2,0,2.4,0.1,3.4,0.4c1,0.3,1.9,0.6,2.7,1.2c0.8,0.5,1.5,1.1,2.1,1.8c0.6,0.7,1.1,1.4,1.5,2.2l-1.9,1.3c-0.8-1.6-1.9-2.7-3.3-3.5
	s-2.9-1.1-4.6-1.1c-1.4,0-2.7,0.3-3.9,0.9c-1.1,0.6-2.1,1.4-2.9,2.4c-0.8,1-1.4,2.1-1.8,3.4c-0.4,1.3-0.6,2.6-0.6,4
	c0,1.4,0.2,2.8,0.7,4.1c0.5,1.3,1.2,2.4,2.1,3.4c0.9,1,1.9,1.7,3,2.3c1.2,0.6,2.4,0.9,3.8,0.9c1.5,0,2.9-0.3,4.2-1
	c1.3-0.7,2.6-1.8,3.9-3.3v-4.2h-5.7v-1.9h7.8V158h-2.1V154.3z"/>
</svg>
