<?xml version="1.0" encoding="utf-8"?>
<!-- Generator: Adobe Illustrator 23.0.1, SVG Export Plug-In . SVG Version: 6.00 Build 0)  -->
<svg version="1.1" id="Layer_1" xmlns="http://www.w3.org/2000/svg" xmlns:xlink="http://www.w3.org/1999/xlink" x="0px" y="0px"
	 viewBox="0 0 1000 682.4" style="enable-background:new 0 0 1000 682.4;" xml:space="preserve">
<style type="text/css">
	.st0{fill:#F14942;}
</style>
<path class="st0" d="M502.2,38.7c-78.2,0-139.8,4.3-199.9,36.8c-62.3,33.8-47.2,69.1-84.5,100.4c-34.4,28.8-84.3,7.7-146.1,58.4
	C28.5,269.6,24.5,303.1,24.5,341c0,170.5,213.9,308.7,477.7,308.7c263.8,0,477.7-138.2,477.7-308.7S766,38.7,502.2,38.7z
	 M403.8,141.6c-1.8,58.5-112.2,68.6-111.4,15.4C293.2,96.7,405.3,90.8,403.8,141.6z M765,494.8l-33.1,35.6L593.6,413v170.6l-57.9,13
	V426l-85.5,74.3c-29.6,34.6-85.6,35.4-108.6,31.1c-41.9-8-70.6-34-86.1-78l8.4-3.4c3.6,9.6,21.5,43.8,56.5,52.3
	c14.4,3.4,36.5,4,55.4-7.4c44.8-27,48.9-74.8,22.9-105.4c-12.5-14.7-33.2-25.1-64.5-31l2.7-11.4c22.2,4.2,38.6,2.1,50.7-0.4
	c12.1-2.5,24.9-9.6,33.3-19.3c16.5-19.2,21.8-78.3-27.9-87.1c-20.9-3.7-40.5,6.2-49.1,11.6l-6.1-6.5c4.8-7.6,11-13.2,23.8-20.4
	c15.6-8.7,38.6-11.3,56.6-7.5c67.8,14.6,71,97.4,38.2,126c-13,11.4-30.3,17.2-50,19.6c18.1,7,69,40.5,61.6,95.7l67.6-66.8V154.2
	l57.9-17v197.5l169.7-167.7l31.4,33.8l-200,173.9L765,494.8z"/>
</svg>
