<svg width="196" height="108" viewBox="0 0 196 108" fill="none" xmlns="http://www.w3.org/2000/svg">
<path d="M98 0C81.9585 0 69.3061 0.742857 56.9925 6.51429C44.1706 12.4571 47.2772 18.7429 39.6519 24.2286C32.5914 29.3143 22.3677 25.6 9.65879 34.5714C0.847262 40.8 0 46.7429 0 53.4286C0 83.6 43.8882 108 98 108C152.112 108 196 83.6 196 53.4286C196 23.3143 152.112 0 98 0ZM77.8352 18.1714C77.4398 28.5143 54.8461 30.2857 54.9591 20.9143C55.1285 10.2286 78.1176 9.2 77.8352 18.1714ZM151.886 80.6286L145.108 86.9143L116.753 66.1714V96.3429L104.891 98.6286V68.4571L87.3245 81.6C81.2807 87.7143 69.7579 87.8286 65.0697 87.0857C56.4841 85.6571 50.6098 81.0857 47.4467 73.3143L49.1412 72.6857C49.8755 74.4 53.547 80.4571 60.7205 81.9429C63.6576 82.5714 68.1764 82.6286 72.0738 80.6286C81.2807 75.8286 82.0715 67.4286 76.762 62C74.2202 59.3714 69.9839 57.5429 63.5447 56.5143L64.1095 54.5143C68.6847 55.2571 72.0173 54.9143 74.5026 54.4571C76.9879 54 79.5862 52.7429 81.3372 51.0286C84.7262 47.6571 85.7994 37.2 75.6323 35.6571C71.3395 35.0286 67.3291 36.7429 65.5781 37.7143L64.3354 36.5714C65.2957 35.2 66.5948 34.2286 69.2496 32.9714C72.4692 31.4286 77.1573 30.9714 80.8853 31.6571C94.7804 34.2286 95.4582 48.8571 88.7366 53.9429C86.0818 55.9429 82.5233 56.9714 78.513 57.4286C82.2409 58.6857 92.6905 64.5714 91.1654 74.3429L105.004 62.5143V20.4L116.866 17.3714V52.2857L151.66 22.6286L158.099 28.6286L116.979 59.4286L151.886 80.6286Z" fill="#F2F2F2"/>
</svg>
