<?xml version="1.0" encoding="utf-8"?>
<!-- Generator: Adobe Illustrator 23.0.1, SVG Export Plug-In . SVG Version: 6.00 Build 0)  -->
<svg version="1.1" id="Layer_1" xmlns="http://www.w3.org/2000/svg" xmlns:xlink="http://www.w3.org/1999/xlink" x="0px" y="0px"
	 viewBox="0 0 1318 189" style="enable-background:new 0 0 1318 189;" xml:space="preserve">
<style type="text/css">
	.st0{fill:#F14942;}
	.st1{fill:#254E76;}
</style>
<path class="st0" d="M173.5,0c-28.4,0-50.8,1.3-72.6,11.4C78.2,21.8,83.7,32.8,70.2,42.4c-12.5,8.9-30.6,2.4-53.1,18.1
	C1.5,71.4,0,81.8,0,93.5C0,146.3,77.7,189,173.5,189c95.8,0,173.5-42.7,173.5-95.5C347,40.8,269.3,0,173.5,0z M137.8,31.8
	c-0.7,18.1-40.7,21.2-40.5,4.8C97.6,17.9,138.3,16.1,137.8,31.8z M268.9,141.1l-12,11l-50.2-36.3v52.8l-21,4v-52.8l-31.1,23
	c-10.7,10.7-31.1,10.9-39.4,9.6c-15.2-2.5-25.6-10.5-31.2-24.1l3-1.1c1.3,3,7.8,13.6,20.5,16.2c5.2,1.1,13.2,1.2,20.1-2.3
	c16.3-8.4,17.7-23.1,8.3-32.6c-4.5-4.6-12-7.8-23.4-9.6l1-3.5c8.1,1.3,14,0.7,18.4-0.1c4.4-0.8,9-3,12.1-6c6-5.9,7.9-24.2-10.1-26.9
	c-7.6-1.1-14.7,1.9-17.8,3.6l-2.2-2c1.7-2.4,4-4.1,8.7-6.3c5.7-2.7,14-3.5,20.6-2.3c24.6,4.5,25.8,30.1,13.9,39
	c-4.7,3.5-11,5.3-18.1,6.1c6.6,2.2,25.1,12.5,22.4,29.6l24.5-20.7V35.7l21-5.3v61.1l61.6-51.9l11.4,10.5L207.1,104L268.9,141.1z"/>
<path class="st1" d="M395.2,46.6l2.8,0.3l2.4,0.2l2,0l2,0l2.4-0.2l2.8-0.3v26c2.7,0,5.2,0.1,7.5,0.2c2.4,0.1,4.8,0.2,7.1,0.3
	c2.1-0.1,4.5-0.2,7.4-0.3c2.8-0.1,5.3-0.1,7.3-0.1v-26l2.8,0.3l2.3,0.2l2,0l2.1-0.1l2.4-0.2l2.7-0.3v65.8l-3.6-0.2l-3.7-0.2
	l-3.5,0.2l-3.6,0.2V80.3c-2.6,0-5,0-7.3-0.1c-2.3-0.1-4.7-0.2-7.4-0.3c-0.9,0-2.9,0.1-6.2,0.2s-6.1,0.2-8.5,0.2v32.1l-3.7-0.2
	l-3.6-0.2c-0.5,0-1,0-1.5,0c-0.9,0.1-1.6,0.2-2.1,0.2l-3.6,0.2V46.6z M505.7,46.6c-0.3,2.2-0.5,3.6-0.5,4.1c0,0.5,0.2,1.9,0.5,4.1
	c-6.6-0.9-14-1.3-22.3-1.3v20.7h10.1c2.8,0,6.8-0.3,11.8-0.9c-0.3,1.9-0.5,3.2-0.5,4c0,0.8,0.2,2.2,0.5,4.2
	c-3.8-0.5-7.8-0.8-11.8-0.8h-10.1v24.3c8.2,0,15.6-0.4,22.3-1.3c-0.3,2.2-0.5,3.6-0.5,4.1l0.5,4.1H469V46.6H505.7z M518,46.6h24.8
	c5.5,0,10,1.1,13.6,3.4c3.6,2.2,5.4,6,5.4,11.2c0,2.8-0.7,5.3-2.2,7.5c-1.4,2.2-3.4,3.9-5.8,5.2c-2.4,1.3-5,2.1-7.8,2.5v0.8
	c4.6,0.5,8.6,1.9,12.1,4.3c3.5,2.4,5.2,6.2,5.2,11.5c0,4.2-1.1,7.7-3.3,10.5c-2.2,2.8-5.1,4.9-8.7,6.2c-3.6,1.4-7.3,2.1-11.2,2.1
	H518V46.6z M532.3,74.8h3c3.5,0,6.2-0.8,8.1-2.4c2.8-2.3,4.1-5.6,4.1-10c0-3.4-0.9-6-2.7-7.8c-1.8-1.8-4.3-2.7-7.5-2.7
	c-1.3,0-2.9,0.1-5,0.3V74.8z M532.3,106.4h4.9c1.8,0,3.5-0.5,5.3-1.5c1.8-1,3.2-2.5,4.4-4.4c1.1-1.9,1.7-4.1,1.7-6.7
	c0-9-4.6-13.5-13.7-13.5c-0.5,0-1,0-1.4,0c-0.4,0-0.8,0-1.1,0.1V106.4z M628.1,101.3l-2.1,8.3c-5.4,2.8-11.7,4.1-19,4.1
	c-5.1,0-9.9-0.8-14.3-2.3c-4.4-1.5-8.3-3.7-11.5-6.6c-3.2-2.8-5.8-6.3-7.6-10.3c-1.8-4.1-2.7-8.5-2.7-13.2c0-6.1,1-11.4,3-16
	c2-4.7,4.7-8.5,8.2-11.5c3.5-3,7.5-5.3,12.1-6.8c4.6-1.5,9.6-2.2,15-2.2c3.3,0,6.7,0.4,10.2,1.2c3.6,0.8,6.7,2,9.3,3.5l-1.2,5.1
	c-0.3,1.6-0.5,2.5-0.5,2.6c-0.1,0.7-0.3,1.4-0.5,2.1h-1.3c-1.9-2.7-4.2-4.8-7.1-6.4c-1.5-0.8-3-1.4-4.4-1.8
	c-1.4-0.4-2.9-0.6-4.5-0.6c-3.8,0-7.2,0.8-10,2.5s-5.2,3.9-7.1,6.8c-1.8,2.8-3.1,6-4,9.4c-0.4,1.8-0.8,3.6-1,5.2
	c-0.2,1.7-0.3,3.5-0.3,5.4c0,5.4,0.9,10.3,2.7,14.6c1.8,4.2,4.4,7.5,7.8,9.9c3.4,2.3,7.6,3.5,12.4,3.5c2.9,0,5.9-0.7,9.1-2
	c3.2-1.3,5.8-3.1,8.1-5.2L628.1,101.3z M640.7,46.6l3.1,0.3l4.1,0.2l2,0l2.4-0.2l2.8-0.3v30c2.5-2.9,5.3-6.2,8.4-9.8
	c2.6-3,5.3-6.4,8.3-10c2.6-3.1,5.3-6.5,8.2-10.3l1.9,0.3l1.7,0.2l1.5,0c0.3,0,0.7,0,1.2,0c0.5,0,1-0.1,1.7-0.2l2.2-0.3v0.8
	c-2.2,2.1-4.4,4.3-6.7,6.7c-2.3,2.3-4.6,4.8-7,7.4c-4.9,5.3-8.6,9.5-11.1,12.6l26.8,37.1v1.3l-4.1-0.2l-4-0.2l-4.1,0.2l-4,0.2
	L655.1,82v30.4l-3.7-0.2l-3.6-0.2l-3.6,0.2l-3.7,0.2V46.6z M715.9,92.4l-2.4,6.7l-2.6,7.5l-1.8,5.7l-2.2-0.1l-2.3-0.1l-2.2,0.1
	l-2.3,0.1l27.5-66.5c1.2,0.2,2.4,0.3,3.6,0.3c1.2,0,2.4-0.1,3.7-0.3l26.8,66.6l-4.2-0.2l-4.2-0.2l-4.1,0.2l-4,0.2
	c-1.2-3.8-2.1-6.6-2.7-8.4c-1-3.1-1.8-5.3-2.2-6.7c-0.6-1.7-1.2-3.3-1.9-4.9H715.9z M736.1,86.5l-8.5-22.4l-9,22.4H736.1z
	 M817.5,112.4l-3.6-0.2l-3.6-0.2l-3.6,0.2l-3.6,0.2V81.8h-0.7l-6.1,10.5l-11.5,20.1l-4.4-0.2l-4.3-0.2c-0.2,0-0.9,0-1.8,0.1
	c-1,0.1-1.8,0.1-2.6,0.1l-4.2,0.2l3.8-5.9l5.9-9.1l6.4-10l4.6-7.8c-3-0.7-5.7-1.8-7.9-3.3c-2.2-1.6-4-3.5-5.2-5.9
	c-1.2-2.3-1.8-5.1-1.8-8.2c0-6.2,2.8-10.8,8.3-13.7c2.7-1.3,7.9-1.9,15.6-1.9h20.4V112.4z M803.1,51.9h-3.3c-3.2,0-5.8,0.5-7.7,1.4
	c-1.9,0.9-3.1,2.8-3.7,5.7c-0.1,0.8-0.2,1.6-0.3,2.4c-0.1,0.9-0.1,1.7-0.1,2.4c0,9.2,4.2,13.8,12.7,13.8l2.4-0.1V51.9z M887.7,46.6
	l15.9,0.1h13.2c3.5,0,7,0,10.4,0c3.4,0,6.6,0,9.7,0c3.1,0,6.1-0.1,9-0.1v65.8l-3.6-0.2l-3.7-0.2l-3.5,0.2l-3.6,0.2V53.8
	c-1.7,0-4.1,0-7.4-0.1s-5.7-0.1-7.3-0.1c-1.7,0-4.2,0-7.4,0.1s-5.7,0.1-7.3,0.1v58.5l-3.7-0.2l-3.6-0.2c-0.5,0-1,0-1.5,0
	c-0.9,0.1-1.6,0.2-2.1,0.2l-3.6,0.2V46.6z M971.2,92.4l-2.4,6.7l-2.6,7.5l-1.8,5.7l-2.2-0.1L960,112l-2.2,0.1l-2.3,0.1l27.5-66.5
	c1.2,0.2,2.4,0.3,3.6,0.3c1.2,0,2.4-0.1,3.7-0.3l26.8,66.6l-4.2-0.2l-4.2-0.2l-4.1,0.2l-4,0.2c-1.2-3.8-2.1-6.6-2.7-8.4
	c-1-3.1-1.8-5.3-2.2-6.7c-0.6-1.7-1.2-3.3-1.9-4.9H971.2z M991.4,86.5l-8.5-22.4l-9,22.4H991.4z M1050.5,46.9h0.9l1.1-0.1l1-0.1
	l1.1-0.1c1,2.8,2,5.5,3.1,8.2c1.1,3.1,2.1,5.5,2.7,7.2l6.4,16.5l6.1,15.3l7.5,18.6l-3.2-0.3l-2.9-0.2l-2.4-0.1l-2.4,0.1
	c-0.6,0-1,0-1.4,0c-0.4,0-0.9,0.1-1.6,0.2l-3.1,0.2c-1.1-3.6-2.3-7.4-3.7-11.4c-1.5-4.4-2.7-7.8-3.7-10.4l-4.6-12.2l-5-13.5
	c-7.8,19-13.8,34.8-17.9,47.5c-1.5-0.2-3-0.3-4.5-0.3c-1.5,0-2.9,0.1-4.4,0.3l7.5-17.4l6.6-15.6l6.4-15.9c1-2.4,2-5.2,3.2-8.2
	c1.2-3.1,2.2-6,3.1-8.6l1.7,0.2C1049.1,46.8,1049.8,46.9,1050.5,46.9z M1090.4,46.6l2.8,0.3l2.4,0.2l2,0l2,0l2.4-0.2l2.8-0.3v45
	c2.6-2.7,5.7-6.2,9.4-10.5c3.3-3.8,6.5-7.7,9.6-11.6c2.9-3.7,6-7.6,9.2-11.9c1.6-2.2,3.1-4.1,4.5-6c1.4-1.8,2.6-3.6,3.8-5.2l3.1,0.1
	h1.9c0.5,0,1,0,1.5,0c0.4-0.1,0.6-0.1,0.8-0.1v66l-3.6-0.2l-3.7-0.2l-3.5,0.2l-3.6,0.2V67c-1.4,1.6-2.8,3.2-4.3,5
	c-1.4,1.7-2.8,3.3-4.2,5l-9.8,12l-10.1,12.7l-8.2,10.8l-3-0.1l-4.2,0.1V46.6z M1191.1,112.4l-3.6-0.2l-3.6-0.2l-3.6,0.2l-3.6,0.2
	v-59c-5.1,0-11.1,0.5-17.9,1.4c0.3-2.2,0.5-3.5,0.5-4.1c0-0.5-0.2-1.9-0.5-4h49.5l-0.3,1.5l-0.2,1.4l-0.1,1.1l0.1,1.2l0.2,1.4
	l0.3,1.5c-7.7-0.9-13.4-1.4-17.2-1.4V112.4z M1233,112.4l-3.7-0.2l-3.6-0.2c-0.7,0-1.3,0-1.9,0c-0.8,0.1-1.3,0.2-1.7,0.2l-3.6,0.2
	V46.6h23.6c6.7,0,11.8,1.4,15.3,4.1s5.2,6.8,5.2,12.1c0,5.4-1.2,9.7-3.7,12.8c-2.4,3.1-5.8,5.2-10.3,6.4c-4.4,1.2-9.7,1.7-15.8,1.7
	V112.4z M1233,78.3c1.4,0,2.6,0,3.5-0.1c1-0.1,1.9-0.3,2.8-0.5c2.9-0.8,5.1-2.4,6.4-4.7c1.4-2.4,2.1-5.2,2.1-8.3
	c0-3.8-0.9-6.8-2.6-9.1c-1.7-2.3-3.8-3.5-6.3-3.5h-5.9V78.3z M1270.2,92.4l-2.4,6.7l-2.6,7.5l-1.8,5.7l-2.2-0.1l-2.3-0.1l-2.2,0.1
	l-2.3,0.1l27.5-66.5c1.2,0.2,2.4,0.3,3.6,0.3c1.2,0,2.4-0.1,3.7-0.3l26.8,66.6l-4.2-0.2l-4.2-0.2l-4.1,0.2l-4,0.2
	c-1.2-3.8-2.1-6.6-2.7-8.4c-1-3.1-1.8-5.3-2.2-6.7c-0.6-1.7-1.2-3.3-1.9-4.9H1270.2z M1290.3,86.5l-8.5-22.4l-9,22.4H1290.3z"/>
<path class="st1" d="M388.5,145c0-1.5,0.3-3.1,0.8-4.6c0.6-1.5,1.3-2.9,2.4-4.1c1-1.2,2.3-2.2,3.8-2.9c1.5-0.8,3.2-1.2,5.1-1.2
	c2.3,0,4.2,0.5,5.8,1.5c1.6,1,2.8,2.4,3.6,4l-2,1.2c-0.4-0.8-0.9-1.5-1.5-2.1c-0.6-0.6-1.2-1-1.9-1.4s-1.4-0.6-2.1-0.8
	c-0.7-0.2-1.4-0.3-2.1-0.3c-1.5,0-2.9,0.3-4.1,0.9s-2.2,1.4-3,2.4c-0.8,1-1.4,2.1-1.8,3.4c-0.4,1.2-0.6,2.5-0.6,3.8
	c0,1.4,0.2,2.8,0.7,4.1c0.5,1.3,1.2,2.4,2,3.5c0.9,1,1.9,1.8,3,2.4c1.2,0.6,2.4,0.9,3.8,0.9c0.7,0,1.5-0.1,2.2-0.3
	c0.8-0.2,1.5-0.5,2.2-0.9c0.7-0.4,1.4-0.9,2-1.5c0.6-0.6,1.1-1.3,1.5-2.2l2.1,1.1c-0.4,1-1,1.8-1.7,2.6c-0.7,0.7-1.6,1.3-2.5,1.8
	c-0.9,0.5-1.9,0.9-2.9,1.2c-1,0.3-2,0.4-3,0.4c-1.8,0-3.4-0.4-4.8-1.2c-1.5-0.8-2.7-1.8-3.8-3c-1.1-1.2-1.9-2.7-2.5-4.2
	C388.8,148.3,388.5,146.7,388.5,145z M424.3,132.4h2.1L437,158h-2.7l-3.3-8h-11.5l-3.3,8h-2.7L424.3,132.4z M430.4,148l-5.1-12.6
	l-5.2,12.6H430.4z M462.7,132.4V158h-2.5v-12H445v12h-2.5v-25.6h2.5v11.4h15.2v-11.4H462.7z M473.5,143.8h3.9l8.4-11.3h2.9l-9,12.3
	l9.9,13.2h-2.9l-9.1-12h-4.1v12H471v-25.6h2.5V143.8z M512.6,134.7h-9.1V158H501v-23.3h-9.1v-2.2h20.7V134.7z M514.8,149.3v-2.3
	h10.5v2.3H514.8z M532.7,132.4h19.7V158h-2.5v-23.3h-14.7V158h-2.5V132.4z M577.9,155.8v2.2h-17.2v-25.6h16.8v2.2h-14.3v9.2h12.5
	v2.1h-12.5v9.8H577.9z M602.5,134.7h-9.1V158h-2.5v-23.3h-9.1v-2.2h20.7V134.7z M625.3,155.8v2.2h-17.2v-25.6H625v2.2h-14.3v9.2
	h12.5v2.1h-12.5v9.8H625.3z M631.9,158v-25.6h10.6c1.1,0,2.1,0.2,3,0.7c0.9,0.5,1.7,1.1,2.4,1.8c0.7,0.7,1.2,1.6,1.6,2.6
	c0.4,1,0.6,1.9,0.6,2.9c0,1.1-0.2,2.1-0.5,3.1c-0.4,1-0.9,1.8-1.5,2.6s-1.4,1.3-2.3,1.8c-0.9,0.5-1.9,0.7-3,0.7h-8.3v9.4H631.9z
	 M634.4,146.3h8.2c0.7,0,1.4-0.2,2-0.5c0.6-0.3,1.2-0.8,1.6-1.3c0.4-0.6,0.8-1.2,1-1.9c0.2-0.7,0.4-1.5,0.4-2.2
	c0-0.8-0.1-1.5-0.4-2.2c-0.3-0.7-0.6-1.3-1.1-1.9c-0.5-0.5-1-0.9-1.7-1.2c-0.6-0.3-1.3-0.5-2-0.5h-8V146.3z M656.2,132.4h17.4v2.2
	h-14.9v8.6h8.8c1.1,0,2.2,0.2,3.1,0.5c0.9,0.3,1.7,0.8,2.4,1.4c0.7,0.6,1.2,1.4,1.5,2.3c0.4,0.9,0.6,1.9,0.6,3.1s-0.2,2.2-0.6,3.1
	c-0.4,0.9-0.9,1.7-1.5,2.3c-0.6,0.6-1.4,1.1-2.4,1.5c-0.9,0.3-2,0.5-3.1,0.5h-11.3V132.4z M667.5,155.8c0.9,0,1.6-0.1,2.2-0.4
	c0.6-0.3,1.2-0.6,1.6-1.1c0.4-0.5,0.7-1,0.9-1.7c0.2-0.6,0.3-1.3,0.3-2.1s-0.1-1.4-0.3-2.1c-0.2-0.6-0.5-1.2-0.9-1.6
	c-0.4-0.5-0.9-0.8-1.6-1c-0.6-0.3-1.4-0.4-2.3-0.4h-8.8v10.3H667.5z M684,158.3c-0.5,0-1,0-1.5-0.1c-0.5-0.1-0.9-0.2-1.3-0.4v-2.2
	c0.4,0.2,0.8,0.3,1.3,0.4c0.5,0.1,0.9,0.1,1.3,0.1s0.8-0.1,1.2-0.2c0.4-0.1,0.7-0.4,1.1-0.7s0.7-0.7,1-1.3c0.4-0.6,0.7-1.2,1.1-2.1
	l-9.4-19.4h2.7l8,16.7l7.7-16.7h2.7l-9.3,19.5c-0.6,1.2-1.1,2.2-1.6,3c-0.5,0.8-1,1.4-1.5,1.9c-0.5,0.5-1,0.8-1.6,1
	C685.3,158.1,684.7,158.3,684,158.3z M705.5,158v-25.6h10.6c1.1,0,2.1,0.2,3,0.7c0.9,0.5,1.7,1.1,2.4,1.8c0.7,0.7,1.2,1.6,1.6,2.6
	c0.4,1,0.6,1.9,0.6,2.9c0,1.1-0.2,2.1-0.5,3.1c-0.4,1-0.9,1.8-1.5,2.6c-0.6,0.7-1.4,1.3-2.3,1.8c-0.9,0.5-1.9,0.7-3,0.7H708v9.4
	H705.5z M708,146.3h8.2c0.7,0,1.4-0.2,2-0.5c0.6-0.3,1.2-0.8,1.6-1.3c0.4-0.6,0.8-1.2,1-1.9c0.2-0.7,0.4-1.5,0.4-2.2
	c0-0.8-0.1-1.5-0.4-2.2c-0.3-0.7-0.6-1.3-1.1-1.9c-0.5-0.5-1-0.9-1.7-1.2c-0.6-0.3-1.3-0.5-2-0.5h-8V146.3z M744.5,134.7h-12.2V158
	h-2.5v-25.6h14.7V134.7z"/>
</svg>
